<svg fill="#FFFFFF" xmlns="http://www.w3.org/2000/svg"  viewBox="0 0 72 72" width="64px" height="64px"><path d="M 32 11 C 30.895 11 30 11.895 30 13 L 30 14 L 17 14 C 14.791 14 13 15.791 13 18 C 13 20.209 14.791 22 17 22 L 55 22 C 57.209 22 59 20.209 59 18 C 59 15.791 57.209 14 55 14 L 42 14 L 42 13 C 42 11.895 41.105 11 40 11 L 32 11 z M 16 24 L 16 49 C 16 54.514 20.486 59 26 59 L 46 59 C 51.514 59 56 54.514 56 49 L 56 24 L 16 24 z M 24.5 29 C 25.328 29 26 29.671 26 30.5 L 26 49.5 C 26 50.329 25.328 51 24.5 51 C 23.672 51 23 50.329 23 49.5 L 23 30.5 C 23 29.671 23.672 29 24.5 29 z M 36 29 C 37.104 29 38 29.896 38 31 L 38 49 C 38 50.104 37.104 51 36 51 C 34.896 51 34 50.104 34 49 L 34 31 C 34 29.896 34.896 29 36 29 z M 47.5 29 C 48.328 29 49 29.671 49 30.5 L 49 49.5 C 49 50.329 48.328 51 47.5 51 C 46.672 51 46 50.329 46 49.5 L 46 30.5 C 46 29.671 46.672 29 47.5 29 z"/></svg>